<?xml version="1.0" encoding="UTF-8"?>
<svg xmlns="http://www.w3.org/2000/svg" viewBox="0 0 48 48">
  <circle cx="24" cy="24" r="20" fill="#14F195"/>
  <path fill="#000" d="M15.6,29.5l2.9-1.5l14.4-7.4c0.3-0.2,0.6,0.2,0.4,0.5L29,27.3l-2.9,1.5l-14.4,7.4c-0.3,0.2-0.6-0.2-0.4-0.5L15.6,29.5z"/>
  <path fill="#000" d="M15.6,19.5l2.9-1.5l14.4-7.4c0.3-0.2,0.6,0.2,0.4,0.5L29,17.3l-2.9,1.5l-14.4,7.4c-0.3,0.2-0.6-0.2-0.4-0.5L15.6,19.5z"/>
  <path fill="#000" d="M33.3,24.5l-2.9,1.5l-14.4,7.4c-0.3,0.2-0.6-0.2-0.4-0.5l4.3-6.2l2.9-1.5l14.4-7.4c0.3-0.2,0.6,0.2,0.4,0.5L33.3,24.5z"/>
</svg>
